HIERARCHY
ROOT Hips
{
	OFFSET 0.000000 0.000000 0.000000
	CHANNELS 6 Xposition Yposition Zposition Zrotation Yrotation Xrotation 
	JOINT LHipJoint
	{
		OFFSET 0.000000 0.000000 0.000000
		CHANNELS 3 Zrotation Yrotation Xrotation
		JOINT LeftUpLeg
		{
			OFFSET 1.363060 -1.794630 0.839290
			CHANNELS 3 Zrotation Yrotation Xrotation
			JOINT LeftLeg
			{
				OFFSET 2.448110 -6.726130 0.000000
				CHANNELS 3 Zrotation Yrotation Xrotation
				JOINT LeftFoot
				{
					OFFSET 2.562200 -7.039590 0.000000
					CHANNELS 3 Zrotation Yrotation Xrotation
					JOINT LeftToeBase
					{
						OFFSET 0.157640 -0.433110 2.322550
						CHANNELS 3 Zrotation Yrotation Xrotation
						End Site
						{
							OFFSET 0.000000 0.000000 0.000000
						}
					}
				}
			}
		}
	}
	JOINT RHipJoint
	{
		OFFSET 0.000000 0.000000 0.000000
		CHANNELS 3 Zrotation Yrotation Xrotation
		JOINT RightUpLeg
		{
			OFFSET -1.305520 -1.794630 0.839290
			CHANNELS 3 Zrotation Yrotation Xrotation
			JOINT RightLeg
			{
				OFFSET -2.542530 -6.985550 0.000000
				CHANNELS 3 Zrotation Yrotation Xrotation
				JOINT RightFoot
				{
					OFFSET -2.568260 -7.056230 0.000000
					CHANNELS 3 Zrotation Yrotation Xrotation
					JOINT RightToeBase
					{
						OFFSET -0.164730 -0.452590 2.363150
						CHANNELS 3 Zrotation Yrotation Xrotation
						End Site
						{
							OFFSET 0.000000 0.000000 0.000000
						}
					}
				}
			}
		}
	}
	JOINT LowerBack
	{
		OFFSET 0.000000 0.000000 0.000000
		CHANNELS 3 Zrotation Yrotation Xrotation
		JOINT Spine
		{
			OFFSET 0.028270 2.035590 -0.193380
			CHANNELS 3 Zrotation Yrotation Xrotation
			JOINT Spine1
			{
				OFFSET 0.056720 2.048850 -0.042750
				CHANNELS 3 Zrotation Yrotation Xrotation
				JOINT Neck
				{
					OFFSET 0.000000 0.000000 0.000000
					CHANNELS 3 Zrotation Yrotation Xrotation
					JOINT Neck1
					{
						OFFSET -0.054170 1.746240 0.172020
						CHANNELS 3 Zrotation Yrotation Xrotation
						JOINT Head
						{
							OFFSET 0.104070 1.761360 -0.123970
							CHANNELS 3 Zrotation Yrotation Xrotation
							End Site
							{
								OFFSET 0.000000 0.000000 0.000000
							}
						}
					}
				}
				JOINT LeftShoulder
				{
					OFFSET 0.000000 0.000000 0.000000
					CHANNELS 3 Zrotation Yrotation Xrotation
					JOINT LeftArm
					{
						OFFSET 3.362410 1.200890 -0.311210
						CHANNELS 3 Zrotation Yrotation Xrotation
						JOINT LeftForeArm
						{
							OFFSET 4.983000 -0.000000 -0.000000
							CHANNELS 3 Zrotation Yrotation Xrotation
							JOINT LeftHand
							{
								OFFSET 3.483560 -0.000000 -0.000000
								CHANNELS 3 Zrotation Yrotation Xrotation
								JOINT LeftFingerBase
								{
									OFFSET 0.000000 0.000000 0.000000
									CHANNELS 3 Zrotation Yrotation Xrotation
									JOINT LeftHandIndex1
									{
										OFFSET 0.715260 -0.000000 -0.000000
										CHANNELS 3 Zrotation Yrotation Xrotation
										End Site
										{
											OFFSET 0.000000 0.000000 0.000000
										}
									}
								}
								JOINT LThumb
								{
									OFFSET 0.000000 0.000000 0.000000
									CHANNELS 3 Zrotation Yrotation Xrotation
									End Site
									{
										OFFSET 0.000000 0.000000 0.000000
									}
								}
							}
						}
					}
				}
				JOINT RightShoulder
				{
					OFFSET 0.000000 0.000000 0.000000
					CHANNELS 3 Zrotation Yrotation Xrotation
					JOINT RightArm
					{
						OFFSET -3.136600 1.374050 -0.404650
						CHANNELS 3 Zrotation Yrotation Xrotation
						JOINT RightForeArm
						{
							OFFSET -5.241900 -0.000000 -0.000000
							CHANNELS 3 Zrotation Yrotation Xrotation
							JOINT RightHand
							{
								OFFSET -3.444170 -0.000000 -0.000000
								CHANNELS 3 Zrotation Yrotation Xrotation
								JOINT RightFingerBase
								{
									OFFSET 0.000000 0.000000 0.000000
									CHANNELS 3 Zrotation Yrotation Xrotation
									JOINT RightHandIndex1
									{
										OFFSET -0.622530 -0.000000 -0.000000
										CHANNELS 3 Zrotation Yrotation Xrotation
										End Site
										{
											OFFSET 0.000000 0.000000 0.000000
										}
									}
								}
								JOINT RThumb
								{
									OFFSET 0.000000 0.000000 0.000000
									CHANNELS 3 Zrotation Yrotation Xrotation
									End Site
									{
										OFFSET 0.000000 0.000000 0.000000
									}
								}
							}
						}
					}
				}
			}
		}
	}
}
MOTION
Frames: 7
Frame Time: 0.008333
22.839434 20.388504 -5.822426 0.693502 3.827965 10.344642 -17.000642 2.214482 2.527666 1.857353 -1.449974 -26.420273 -12.239759 -25.796757 37.297934 -18.343766 40.396392 -2.828463 -0.836791 -1.813258 -4.517334 15.107242 -2.619031 2.856089 -3.150271 1.540968 -27.666488 8.090043 12.418132 34.248262 13.996576 -39.335250 -10.569201 0.188913 0.780383 -3.988228 1.920650 0.148889 7.088028 0.750801 0.282536 -4.028638 -1.283428 0.186568 -1.578491 -5.055232 -2.249661 -4.848339 0.473835 -2.461083 32.290123 -10.132215 0.263283 5.004359 -2.757060 -6.819808 -0.285993 -83.660656 -17.581567 51.854402 17.060312 -29.754514 -14.271747 0.141820 -3.292107 -2.642625 0.296790 -0.462726 -0.000000 0.000000 0.000000 0.000000 0.000000 0.000000 0.000000 6.532925 9.039670 3.413215 72.586153 12.833235 38.939989 -5.158807 16.470316 -2.340548 -4.949294 2.328199 -0.905424 1.651306 0.178037 0.000000 0.000000 0.000000 0.000000 0.000000 0.000000 0.000000
22.844630 20.334426 -5.791689 0.747477 3.637830 10.539364 -17.018333 2.096370 2.633722 2.202772 -2.305581 -26.189203 -11.697771 -25.505460 36.293711 -20.012017 39.260257 -3.478551 -0.840425 -1.626782 -4.659346 15.086744 -2.564854 2.870471 -3.527839 2.105158 -27.494638 7.665321 12.206655 33.200406 12.763023 -39.940386 -8.496269 -0.045935 -0.129896 -3.115807 1.901161 0.188454 6.993202 0.748369 0.322092 -4.053278 -1.257706 0.227093 -1.766517 -5.129676 -2.261910 -4.734750 0.619104 -2.361851 31.833388 -10.071379 0.344183 4.376125 -2.036394 -6.634040 -0.342211 -84.295389 -17.112622 51.536666 18.438667 -32.247121 -15.782498 0.298743 -3.301815 -2.323261 0.204166 -0.512098 -0.000000 0.000000 0.000000 0.000000 0.000000 0.000000 0.000000 5.911910 8.920461 3.165720 72.220195 12.553022 38.508126 -4.250056 17.833745 -0.003493 -4.728401 3.009238 1.187421 1.588724 0.017885 -0.000000 0.000000 0.000000 0.000000 0.000000 0.000000 0.000000
22.849240 20.273404 -5.763859 0.830673 3.384811 10.513811 -17.087435 2.070462 2.723678 2.680884 -3.295745 -25.660909 -11.067429 -24.733057 34.988052 -21.469964 38.480868 -3.691402 -0.863316 -1.759793 -4.746358 15.075880 -2.603797 2.835039 -3.936229 2.620853 -27.123664 6.879555 11.389653 32.010743 12.472525 -39.675668 -6.352967 -0.012406 -0.003574 -3.221765 1.824822 0.223538 7.094513 0.745194 0.366455 -4.071114 -1.196409 0.271246 -1.890967 -5.224198 -2.313298 -4.663456 0.664706 -2.273431 31.272960 -9.701216 0.362926 4.090747 -1.326533 -6.444427 -0.439752 -84.908240 -16.591243 51.728020 20.428336 -34.586612 -18.119054 0.543229 -3.349060 -2.387243 0.072124 -0.537555 -0.000000 0.000000 0.000000 0.000000 0.000000 0.000000 0.000000 5.356719 8.831401 3.072641 71.688137 12.510512 37.894741 -3.286566 19.234593 2.236372 -5.452679 3.550347 3.041870 1.881034 -0.056217 0.000000 0.000000 0.000000 0.000000 0.000000 0.000000 0.000000
22.860237 20.196035 -5.737450 0.884533 3.588658 10.680025 -17.073554 1.986996 2.855930 3.114012 -4.525273 -25.535785 -11.003944 -24.441279 34.553175 -23.352852 37.812951 -4.543964 -0.837338 -1.455135 -4.740561 15.050096 -2.654217 2.802530 -3.976268 2.260616 -27.341497 6.262347 11.005676 31.388950 11.840305 -39.345233 -4.043494 -0.024646 -0.046993 -3.426489 1.965453 0.136584 6.990837 0.757233 0.265622 -4.097945 -1.218158 0.168058 -2.034022 -5.318886 -2.301170 -4.547480 0.801875 -2.258307 30.568626 -9.245140 0.348099 4.407511 -0.692116 -6.494351 -0.544146 -85.440040 -16.000979 51.723771 22.649407 -36.674172 -20.656969 1.002670 -3.401113 -2.517314 -0.133599 -0.559168 -0.000000 0.000000 0.000000 0.000000 0.000000 0.000000 0.000000 4.796879 8.781206 2.962256 71.106894 12.411303 37.449211 -2.208404 20.456258 4.740897 -5.405812 3.871383 5.150215 1.874839 -0.078597 0.000000 0.000000 0.000000 0.000000 0.000000 0.000000 0.000000
22.868343 20.103485 -5.714297 0.935462 3.733579 10.896000 -17.033008 1.862138 2.921311 3.350581 -5.208200 -25.684722 -11.181175 -24.380295 34.581665 -25.311227 37.401837 -5.293254 -0.900479 -1.745685 -5.028903 14.976825 -2.624918 2.812976 -4.014197 2.045355 -27.618049 6.525417 11.703768 31.659458 11.055364 -39.959657 -3.136684 -0.046603 -0.137251 -2.534751 2.063619 0.102268 6.839432 0.765366 0.220950 -4.122239 -1.173151 0.121730 -2.112594 -5.274329 -2.110592 -4.479742 1.516482 -2.417182 29.883786 -10.661884 0.645035 4.632595 -0.162511 -6.608115 -0.603687 -85.904343 -15.485294 51.952153 24.930885 -38.654023 -23.553171 0.644417 -3.354487 -2.731480 -0.062017 -0.542281 0.000000 0.000000 0.000000 0.000000 0.000000 0.000000 0.000000 4.270584 8.671791 2.915747 70.364547 12.493378 36.155939 -0.744589 21.719045 7.537303 -6.188058 4.173981 7.232174 2.179436 -0.039171 0.000000 0.000000 0.000000 0.000000 0.000000 0.000000 0.000000
22.872523 20.003924 -5.688168 0.910573 3.792561 10.914874 -17.029957 1.818330 2.856672 3.623533 -5.783066 -25.462641 -11.513248 -23.928353 34.368025 -22.867118 37.757081 -3.747189 -0.605266 -1.164315 -3.263565 14.828914 -2.480476 2.961572 -4.488421 2.493535 -27.414081 7.784309 13.516819 33.044584 16.937217 -40.743744 -8.212406 -0.000302 0.019156 -1.601433 2.129418 0.056120 6.855253 0.771738 0.174701 -4.136500 -1.111531 0.075362 -2.179032 -5.366336 -2.133592 -4.431118 1.559319 -2.303245 29.504501 -9.937423 0.593050 4.061258 0.395776 -6.542286 -0.620417 -86.364410 -15.084682 52.325336 27.600855 -40.303823 -26.964040 0.869101 -3.295426 -3.256836 -0.199821 -0.557775 0.000000 0.000000 0.000000 0.000000 0.000000 0.000000 0.000000 3.866629 8.597800 2.859052 69.734184 12.491504 36.752406 -0.393485 22.923177 8.781839 -6.940847 4.326782 8.260009 2.432230 0.028074 0.000000 0.000000 0.000000 0.000000 0.000000 0.000000 0.000000
22.877957 19.887188 -5.672187 0.848654 4.123421 11.004898 -17.028613 1.836179 2.656119 3.171096 -5.525630 -25.760348 -10.987684 -22.341636 34.185942 -16.507417 36.350286 -0.794604 -0.330243 -1.481439 -1.060300 14.674720 -2.313577 3.100030 -4.712392 2.390327 -27.546372 9.317526 15.354503 35.163577 22.909401 -40.935560 -14.955820 0.360430 1.320434 -2.037952 2.322969 -0.092653 6.906825 0.788678 0.014600 -4.151102 -1.096052 -0.084981 -2.324781 -5.506787 -2.205698 -4.299713 1.443970 -2.045119 29.320658 -8.432386 0.451464 2.400220 1.019611 -6.589415 -0.758852 -86.775970 -14.519719 52.481123 30.458694 -41.941719 -30.612487 0.991524 -3.279399 -3.742425 -0.311701 -0.536178 0.000000 0.000000 0.000000 0.000000 0.000000 0.000000 0.000000 3.403400 8.576886 2.802296 69.160489 12.671407 36.725447 0.174071 24.090366 10.204929 -8.398543 4.609278 9.223487 2.944058 0.095313 0.000000 0.000000 0.000000 0.000000 0.000000 0.000000 0.000000
